<?xml version="1.0" encoding="utf-8"?><svg width="auto" height="5470" style="overflow:visible " version="1.1" xmlns="http://www.w3.org/2000/svg"><rect x="20" y="20" width="200" height="40" style="fill:white;stroke:black;stroke-width:1" /><text x="30" y="30" font-size="10" style="fill:blue">rutas</text><rect x="240" y="20" width="200" height="40" style="fill:white;stroke:black;stroke-width:1" /><text x="250" y="30" font-size="10" style="fill:blue">ruta</text><path d="M220 40 C240 40 220 40 240 40" style="fill:transparent;stroke:black" /><text x="250" y="40" font-size="8" style="fill:black">nombre: Horton Plains</text><text x="250" y="50" font-size="8" style="fill:black">tipo: Senderismo</text><text x="250" y="60" font-size="8" style="fill:black">medio_transporte: A pie</text><text x="250" y="70" font-size="8" style="fill:black">fecha_inicio: 03/08/2018</text><text x="250" y="80" font-size="8" style="fill:black">hora_inicio: 07:00</text><text x="250" y="90" font-size="8" style="fill:black">duracion:  4 horas</text><text x="250" y="100" font-size="8" style="fill:black">agencia: Sin agencia</text><text x="250" y="110" font-size="8" style="fill:black">personas_adecuadas: Se puede ir con niños acostumbrados a caminar</text><text x="250" y="120" font-size="8" style="fill:black">lugar_inicio: Oficina del Parque Horton Plains</text><text x="250" y="130" font-size="8" style="fill:black">direccion: Parque Nacional Horton Plains</text><text x="250" y="140" font-size="8" style="fill:black">recomendacion: 8</text><rect x="460" y="20" width="200" height="40" style="fill:white;stroke:black;stroke-width:1" /><text x="470" y="30" font-size="10" style="fill:blue">descripcion</text><path d="M440 40 C460 40 440 40 460 40" style="fill:transparent;stroke:black" /><rect x="526" y="20" width="137" height="40" style="fill:green;stroke:black;stroke-width:1" /><text x="536" y="30" font-size="8" style="fill:white"> Caminata por el parque nacional de Horton Plains [llanuras de Horton], en Sri
            Lanka, una planicie a 2.000 metros de altitud que acercan al caminante al Fin del Mundo
            (World's End), un mirador que cae a cuchillo 850 metros, para llevarlo luego a las
            cascadas Baker (Baker's falls), siempre entre parajes hermosos que combinan pequeños
            tramos de bosques con páramos acolinados poblados de azaleas. </text><rect x="460" y="70" width="200" height="40" style="fill:white;stroke:black;stroke-width:1" /><text x="470" y="80" font-size="10" style="fill:blue">coordenadas</text><path d="M440 40 C460 40 440 90 460 90" style="fill:transparent;stroke:black" /><rect x="680" y="70" width="200" height="40" style="fill:white;stroke:black;stroke-width:1" /><text x="690" y="80" font-size="10" style="fill:blue">longitud</text><path d="M660 90 C680 90 660 90 680 90" style="fill:transparent;stroke:black" /><rect x="746" y="70" width="137" height="40" style="fill:green;stroke:black;stroke-width:1" /><text x="756" y="80" font-size="8" style="fill:white">80°48'26.51" E</text><rect x="680" y="120" width="200" height="40" style="fill:white;stroke:black;stroke-width:1" /><text x="690" y="130" font-size="10" style="fill:blue">latitud</text><path d="M660 90 C680 90 660 140 680 140" style="fill:transparent;stroke:black" /><rect x="746" y="120" width="137" height="40" style="fill:green;stroke:black;stroke-width:1" /><text x="756" y="130" font-size="8" style="fill:white">6°48'07.03" N</text><rect x="680" y="170" width="200" height="40" style="fill:white;stroke:black;stroke-width:1" /><text x="690" y="180" font-size="10" style="fill:blue">altitud</text><path d="M660 90 C680 90 660 190 680 190" style="fill:transparent;stroke:black" /><rect x="746" y="170" width="137" height="40" style="fill:green;stroke:black;stroke-width:1" /><text x="756" y="180" font-size="8" style="fill:white">1938 m</text><rect x="460" y="270" width="200" height="40" style="fill:white;stroke:black;stroke-width:1" /><text x="470" y="280" font-size="10" style="fill:blue">referencias</text><path d="M440 40 C460 40 440 290 460 290" style="fill:transparent;stroke:black" /><rect x="680" y="270" width="200" height="40" style="fill:white;stroke:black;stroke-width:1" /><text x="690" y="280" font-size="10" style="fill:blue">referencia</text><path d="M660 290 C680 290 660 290 680 290" style="fill:transparent;stroke:black" /><rect x="746" y="270" width="137" height="40" style="fill:green;stroke:black;stroke-width:1" /><text x="756" y="280" font-size="8" style="fill:white">https://es.wikiloc.com/rutas-senderismo/horton-plains-sri-lanka-27187807</text><rect x="680" y="320" width="200" height="40" style="fill:white;stroke:black;stroke-width:1" /><text x="690" y="330" font-size="10" style="fill:blue">referencia</text><path d="M660 290 C680 290 660 340 680 340" style="fill:transparent;stroke:black" /><rect x="746" y="320" width="137" height="40" style="fill:green;stroke:black;stroke-width:1" /><text x="756" y="330" font-size="8" style="fill:white">https://es.wikipedia.org/wiki/Parque_nacional_de_las_Llanuras_de_Horton</text><rect x="680" y="370" width="200" height="40" style="fill:white;stroke:black;stroke-width:1" /><text x="690" y="380" font-size="10" style="fill:blue">referencia</text><path d="M660 290 C680 290 660 390 680 390" style="fill:transparent;stroke:black" /><rect x="746" y="370" width="137" height="40" style="fill:green;stroke:black;stroke-width:1" /><text x="756" y="380" font-size="8" style="fill:white">https://en.wikipedia.org/wiki/Baker%27s_Falls</text><rect x="460" y="470" width="200" height="40" style="fill:white;stroke:black;stroke-width:1" /><text x="470" y="480" font-size="10" style="fill:blue">hitos</text><path d="M440 40 C460 40 440 490 460 490" style="fill:transparent;stroke:black" /><rect x="680" y="470" width="200" height="40" style="fill:white;stroke:black;stroke-width:1" /><text x="690" y="480" font-size="10" style="fill:blue">hito</text><path d="M660 490 C680 490 660 490 680 490" style="fill:transparent;stroke:black" /><text x="690" y="490" font-size="8" style="fill:black">nombre: Mini Mirador del Fin del Mundo</text><text x="690" y="500" font-size="8" style="fill:black">descripcion: Mirador desde el que ya se contemplan unas maravillosas vistas del valle que forma, abajo, el río Kiriketi.</text><rect x="900" y="470" width="200" height="40" style="fill:white;stroke:black;stroke-width:1" /><text x="910" y="480" font-size="10" style="fill:blue">coordenadas</text><path d="M880 490 C900 490 880 490 900 490" style="fill:transparent;stroke:black" /><rect x="1120" y="470" width="200" height="40" style="fill:white;stroke:black;stroke-width:1" /><text x="1130" y="480" font-size="10" style="fill:blue">longitud</text><path d="M1100 490 C1120 490 1100 490 1120 490" style="fill:transparent;stroke:black" /><rect x="1186" y="470" width="137" height="40" style="fill:green;stroke:black;stroke-width:1" /><text x="1196" y="480" font-size="8" style="fill:white">80°48'00.95" E</text><rect x="1120" y="520" width="200" height="40" style="fill:white;stroke:black;stroke-width:1" /><text x="1130" y="530" font-size="10" style="fill:blue">latitud</text><path d="M1100 490 C1120 490 1100 540 1120 540" style="fill:transparent;stroke:black" /><rect x="1186" y="520" width="137" height="40" style="fill:green;stroke:black;stroke-width:1" /><text x="1196" y="530" font-size="8" style="fill:white">6°47'07.11" N</text><rect x="1120" y="570" width="200" height="40" style="fill:white;stroke:black;stroke-width:1" /><text x="1130" y="580" font-size="10" style="fill:blue">altitud</text><path d="M1100 490 C1120 490 1100 590 1120 590" style="fill:transparent;stroke:black" /><rect x="1186" y="570" width="137" height="40" style="fill:green;stroke:black;stroke-width:1" /><text x="1196" y="580" font-size="8" style="fill:white">2084 m</text><rect x="900" y="670" width="200" height="40" style="fill:white;stroke:black;stroke-width:1" /><text x="910" y="680" font-size="10" style="fill:blue">distancia</text><path d="M880 490 C900 490 880 690 900 690" style="fill:transparent;stroke:black" /><text x="910" y="690" font-size="8" style="fill:black">unidades: km</text><rect x="966" y="670" width="137" height="40" style="fill:green;stroke:black;stroke-width:1" /><text x="976" y="680" font-size="8" style="fill:white">0</text><rect x="900" y="720" width="200" height="40" style="fill:white;stroke:black;stroke-width:1" /><text x="910" y="730" font-size="10" style="fill:blue">galeria_fotos</text><path d="M880 490 C900 490 880 740 900 740" style="fill:transparent;stroke:black" /><rect x="1120" y="720" width="200" height="40" style="fill:white;stroke:black;stroke-width:1" /><text x="1130" y="730" font-size="10" style="fill:blue">fotografia</text><path d="M1100 740 C1120 740 1100 740 1120 740" style="fill:transparent;stroke:black" /><rect x="1186" y="720" width="137" height="40" style="fill:green;stroke:black;stroke-width:1" /><text x="1196" y="730" font-size="8" style="fill:white">mini_fin_del_mundo</text><rect x="900" y="820" width="200" height="40" style="fill:white;stroke:black;stroke-width:1" /><text x="910" y="830" font-size="10" style="fill:blue">galeria_videos</text><path d="M880 490 C900 490 880 840 900 840" style="fill:transparent;stroke:black" /><rect x="1120" y="820" width="200" height="40" style="fill:white;stroke:black;stroke-width:1" /><text x="1130" y="830" font-size="10" style="fill:blue">video</text><path d="M1100 840 C1120 840 1100 840 1120 840" style="fill:transparent;stroke:black" /><rect x="1186" y="820" width="137" height="40" style="fill:green;stroke:black;stroke-width:1" /><text x="1196" y="830" font-size="8" style="fill:white">video1</text><rect x="680" y="970" width="200" height="40" style="fill:white;stroke:black;stroke-width:1" /><text x="690" y="980" font-size="10" style="fill:blue">hito</text><path d="M660 490 C680 490 660 990 680 990" style="fill:transparent;stroke:black" /><text x="690" y="990" font-size="8" style="fill:black">nombre: Mirador del Fin del Mundo</text><text x="690" y="1000" font-size="8" style="fill:black">descripcion: Acantilado de 870 metros de altura con vistas espectaculares</text><rect x="900" y="970" width="200" height="40" style="fill:white;stroke:black;stroke-width:1" /><text x="910" y="980" font-size="10" style="fill:blue">coordenadas</text><path d="M880 990 C900 990 880 990 900 990" style="fill:transparent;stroke:black" /><rect x="1120" y="970" width="200" height="40" style="fill:white;stroke:black;stroke-width:1" /><text x="1130" y="980" font-size="10" style="fill:blue">longitud</text><path d="M1100 990 C1120 990 1100 990 1120 990" style="fill:transparent;stroke:black" /><rect x="1186" y="970" width="137" height="40" style="fill:green;stroke:black;stroke-width:1" /><text x="1196" y="980" font-size="8" style="fill:white">80°47'39.67" E</text><rect x="1120" y="1020" width="200" height="40" style="fill:white;stroke:black;stroke-width:1" /><text x="1130" y="1030" font-size="10" style="fill:blue">latitud</text><path d="M1100 990 C1120 990 1100 1040 1120 1040" style="fill:transparent;stroke:black" /><rect x="1186" y="1020" width="137" height="40" style="fill:green;stroke:black;stroke-width:1" /><text x="1196" y="1030" font-size="8" style="fill:white">6°46'49.60" N</text><rect x="1120" y="1070" width="200" height="40" style="fill:white;stroke:black;stroke-width:1" /><text x="1130" y="1080" font-size="10" style="fill:blue">altitud</text><path d="M1100 990 C1120 990 1100 1090 1120 1090" style="fill:transparent;stroke:black" /><rect x="1186" y="1070" width="137" height="40" style="fill:green;stroke:black;stroke-width:1" /><text x="1196" y="1080" font-size="8" style="fill:white">2088 m</text><rect x="900" y="1170" width="200" height="40" style="fill:white;stroke:black;stroke-width:1" /><text x="910" y="1180" font-size="10" style="fill:blue">distancia</text><path d="M880 990 C900 990 880 1190 900 1190" style="fill:transparent;stroke:black" /><text x="910" y="1190" font-size="8" style="fill:black">unidades: km</text><rect x="966" y="1170" width="137" height="40" style="fill:green;stroke:black;stroke-width:1" /><text x="976" y="1180" font-size="8" style="fill:white">1.3</text><rect x="900" y="1220" width="200" height="40" style="fill:white;stroke:black;stroke-width:1" /><text x="910" y="1230" font-size="10" style="fill:blue">galeria_fotos</text><path d="M880 990 C900 990 880 1240 900 1240" style="fill:transparent;stroke:black" /><rect x="1120" y="1220" width="200" height="40" style="fill:white;stroke:black;stroke-width:1" /><text x="1130" y="1230" font-size="10" style="fill:blue">fotografia</text><path d="M1100 1240 C1120 1240 1100 1240 1120 1240" style="fill:transparent;stroke:black" /><rect x="1186" y="1220" width="137" height="40" style="fill:green;stroke:black;stroke-width:1" /><text x="1196" y="1230" font-size="8" style="fill:white">fin_del_mundo</text><rect x="680" y="1370" width="200" height="40" style="fill:white;stroke:black;stroke-width:1" /><text x="690" y="1380" font-size="10" style="fill:blue">hito</text><path d="M660 490 C680 490 660 1390 680 1390" style="fill:transparent;stroke:black" /><text x="690" y="1390" font-size="8" style="fill:black">nombre: Cascadas de Baker</text><text x="690" y="1400" font-size="8" style="fill:black">descripcion: Cascada de 20 metros que obtuvo su nombre del explorador britanico Sir Samuel Baker</text><rect x="900" y="1370" width="200" height="40" style="fill:white;stroke:black;stroke-width:1" /><text x="910" y="1380" font-size="10" style="fill:blue">coordenadas</text><path d="M880 1390 C900 1390 880 1390 900 1390" style="fill:transparent;stroke:black" /><rect x="1120" y="1370" width="200" height="40" style="fill:white;stroke:black;stroke-width:1" /><text x="1130" y="1380" font-size="10" style="fill:blue">longitud</text><path d="M1100 1390 C1120 1390 1100 1390 1120 1390" style="fill:transparent;stroke:black" /><rect x="1186" y="1370" width="137" height="40" style="fill:green;stroke:black;stroke-width:1" /><text x="1196" y="1380" font-size="8" style="fill:white">80°47'22.08" E</text><rect x="1120" y="1420" width="200" height="40" style="fill:white;stroke:black;stroke-width:1" /><text x="1130" y="1430" font-size="10" style="fill:blue">latitud</text><path d="M1100 1390 C1120 1390 1100 1440 1120 1440" style="fill:transparent;stroke:black" /><rect x="1186" y="1420" width="137" height="40" style="fill:green;stroke:black;stroke-width:1" /><text x="1196" y="1430" font-size="8" style="fill:white">6°47'33.79" N</text><rect x="1120" y="1470" width="200" height="40" style="fill:white;stroke:black;stroke-width:1" /><text x="1130" y="1480" font-size="10" style="fill:blue">altitud</text><path d="M1100 1390 C1120 1390 1100 1490 1120 1490" style="fill:transparent;stroke:black" /><rect x="1186" y="1470" width="137" height="40" style="fill:green;stroke:black;stroke-width:1" /><text x="1196" y="1480" font-size="8" style="fill:white">2065 m</text><rect x="900" y="1570" width="200" height="40" style="fill:white;stroke:black;stroke-width:1" /><text x="910" y="1580" font-size="10" style="fill:blue">distancia</text><path d="M880 1390 C900 1390 880 1590 900 1590" style="fill:transparent;stroke:black" /><text x="910" y="1590" font-size="8" style="fill:black">unidades: km</text><rect x="966" y="1570" width="137" height="40" style="fill:green;stroke:black;stroke-width:1" /><text x="976" y="1580" font-size="8" style="fill:white">2.1</text><rect x="900" y="1620" width="200" height="40" style="fill:white;stroke:black;stroke-width:1" /><text x="910" y="1630" font-size="10" style="fill:blue">galeria_fotos</text><path d="M880 1390 C900 1390 880 1640 900 1640" style="fill:transparent;stroke:black" /><rect x="1120" y="1620" width="200" height="40" style="fill:white;stroke:black;stroke-width:1" /><text x="1130" y="1630" font-size="10" style="fill:blue">fotografia</text><path d="M1100 1640 C1120 1640 1100 1640 1120 1640" style="fill:transparent;stroke:black" /><rect x="1186" y="1620" width="137" height="40" style="fill:green;stroke:black;stroke-width:1" /><text x="1196" y="1630" font-size="8" style="fill:white">baker_falls</text><rect x="240" y="1870" width="200" height="40" style="fill:white;stroke:black;stroke-width:1" /><text x="250" y="1880" font-size="10" style="fill:blue">ruta</text><path d="M220 40 C240 40 220 1890 240 1890" style="fill:transparent;stroke:black" /><text x="250" y="1890" font-size="8" style="fill:black">nombre: Ella - Little Adam's Peak - Nine Arches Bridge</text><text x="250" y="1900" font-size="8" style="fill:black">tipo: Caminata</text><text x="250" y="1910" font-size="8" style="fill:black">medio_transporte: A pie</text><text x="250" y="1920" font-size="8" style="fill:black">duracion: 3 horas y media</text><text x="250" y="1930" font-size="8" style="fill:black">agencia: Sin Agencia</text><text x="250" y="1940" font-size="8" style="fill:black">personas_adecuadas: Adecuado para la mayoría</text><text x="250" y="1950" font-size="8" style="fill:black">lugar_inicio: Ella</text><text x="250" y="1960" font-size="8" style="fill:black">direccion: Ella Main Street</text><text x="250" y="1970" font-size="8" style="fill:black">recomendacion: 7</text><rect x="460" y="1870" width="200" height="40" style="fill:white;stroke:black;stroke-width:1" /><text x="470" y="1880" font-size="10" style="fill:blue">descripcion</text><path d="M440 1890 C460 1890 440 1890 460 1890" style="fill:transparent;stroke:black" /><rect x="526" y="1870" width="137" height="40" style="fill:green;stroke:black;stroke-width:1" /><text x="536" y="1880" font-size="8" style="fill:white">Ruta circular preciosa. Un recorrido sencillo, muy bonito y con el que podemos
            visitar Little Adam's Peak y Nine Arches Bridge, dos de los puntos más interesantes de
            la zona. </text><rect x="460" y="1920" width="200" height="40" style="fill:white;stroke:black;stroke-width:1" /><text x="470" y="1930" font-size="10" style="fill:blue">coordenadas</text><path d="M440 1890 C460 1890 440 1940 460 1940" style="fill:transparent;stroke:black" /><rect x="680" y="1920" width="200" height="40" style="fill:white;stroke:black;stroke-width:1" /><text x="690" y="1930" font-size="10" style="fill:blue">longitud</text><path d="M660 1940 C680 1940 660 1940 680 1940" style="fill:transparent;stroke:black" /><rect x="746" y="1920" width="137" height="40" style="fill:green;stroke:black;stroke-width:1" /><text x="756" y="1930" font-size="8" style="fill:white">81°02'54.32" E</text><rect x="680" y="1970" width="200" height="40" style="fill:white;stroke:black;stroke-width:1" /><text x="690" y="1980" font-size="10" style="fill:blue">latitud</text><path d="M660 1940 C680 1940 660 1990 680 1990" style="fill:transparent;stroke:black" /><rect x="746" y="1970" width="137" height="40" style="fill:green;stroke:black;stroke-width:1" /><text x="756" y="1980" font-size="8" style="fill:white">6°52'21.73" N</text><rect x="680" y="2020" width="200" height="40" style="fill:white;stroke:black;stroke-width:1" /><text x="690" y="2030" font-size="10" style="fill:blue">altitud</text><path d="M660 1940 C680 1940 660 2040 680 2040" style="fill:transparent;stroke:black" /><rect x="746" y="2020" width="137" height="40" style="fill:green;stroke:black;stroke-width:1" /><text x="756" y="2030" font-size="8" style="fill:white">1027 m</text><rect x="460" y="2120" width="200" height="40" style="fill:white;stroke:black;stroke-width:1" /><text x="470" y="2130" font-size="10" style="fill:blue">referencias</text><path d="M440 1890 C460 1890 440 2140 460 2140" style="fill:transparent;stroke:black" /><rect x="680" y="2120" width="200" height="40" style="fill:white;stroke:black;stroke-width:1" /><text x="690" y="2130" font-size="10" style="fill:blue">referencia</text><path d="M660 2140 C680 2140 660 2140 680 2140" style="fill:transparent;stroke:black" /><rect x="746" y="2120" width="137" height="40" style="fill:green;stroke:black;stroke-width:1" /><text x="756" y="2130" font-size="8" style="fill:white">
                https://es.wikiloc.com/rutas-senderismo/ella-little-adams-peak-1-146-m-nine-arches-bridge-40847339</text><rect x="680" y="2170" width="200" height="40" style="fill:white;stroke:black;stroke-width:1" /><text x="690" y="2180" font-size="10" style="fill:blue">referencia</text><path d="M660 2140 C680 2140 660 2190 680 2190" style="fill:transparent;stroke:black" /><rect x="746" y="2170" width="137" height="40" style="fill:green;stroke:black;stroke-width:1" /><text x="756" y="2180" font-size="8" style="fill:white">
                https://www.holidify.com/places/ella/main-street--sightseeing-1264874.html#:~:text=The%20Main%20Street%20at%20Ella,waiting%20to%20pick%20up%20passengers.</text><rect x="680" y="2220" width="200" height="40" style="fill:white;stroke:black;stroke-width:1" /><text x="690" y="2230" font-size="10" style="fill:blue">referencia</text><path d="M660 2140 C680 2140 660 2240 680 2240" style="fill:transparent;stroke:black" /><rect x="746" y="2220" width="137" height="40" style="fill:green;stroke:black;stroke-width:1" /><text x="756" y="2230" font-size="8" style="fill:white">
                https://en.wikipedia.org/wiki/Ella,_Sri_Lanka#/media/File:SL_Ella_asv2020-01_img22_View_from_Little_Adams_Peak.jpg</text><rect x="680" y="2270" width="200" height="40" style="fill:white;stroke:black;stroke-width:1" /><text x="690" y="2280" font-size="10" style="fill:blue">referencia</text><path d="M660 2140 C680 2140 660 2290 680 2290" style="fill:transparent;stroke:black" /><rect x="746" y="2270" width="137" height="40" style="fill:green;stroke:black;stroke-width:1" /><text x="756" y="2280" font-size="8" style="fill:white">https://en.wikipedia.org/wiki/Nine_Arch_Bridge</text><rect x="460" y="2370" width="200" height="40" style="fill:white;stroke:black;stroke-width:1" /><text x="470" y="2380" font-size="10" style="fill:blue">hitos</text><path d="M440 1890 C460 1890 440 2390 460 2390" style="fill:transparent;stroke:black" /><rect x="680" y="2370" width="200" height="40" style="fill:white;stroke:black;stroke-width:1" /><text x="690" y="2380" font-size="10" style="fill:blue">hito</text><path d="M660 2390 C680 2390 660 2390 680 2390" style="fill:transparent;stroke:black" /><text x="690" y="2390" font-size="8" style="fill:black">nombre: Calle principal de Ella</text><text x="690" y="2400" font-size="8" style="fill:black">descripcion: Una calle con multiples bares y restaurantes. Los restaurantes ofrecen vistas a la calle, normalmente repleta de tuk-tuks esperando para recoger pasajeros.</text><rect x="900" y="2370" width="200" height="40" style="fill:white;stroke:black;stroke-width:1" /><text x="910" y="2380" font-size="10" style="fill:blue">coordenadas</text><path d="M880 2390 C900 2390 880 2390 900 2390" style="fill:transparent;stroke:black" /><rect x="1120" y="2370" width="200" height="40" style="fill:white;stroke:black;stroke-width:1" /><text x="1130" y="2380" font-size="10" style="fill:blue">longitud</text><path d="M1100 2390 C1120 2390 1100 2390 1120 2390" style="fill:transparent;stroke:black" /><rect x="1186" y="2370" width="137" height="40" style="fill:green;stroke:black;stroke-width:1" /><text x="1196" y="2380" font-size="8" style="fill:white">81°02'55.20" E</text><rect x="1120" y="2420" width="200" height="40" style="fill:white;stroke:black;stroke-width:1" /><text x="1130" y="2430" font-size="10" style="fill:blue">latitud</text><path d="M1100 2390 C1120 2390 1100 2440 1120 2440" style="fill:transparent;stroke:black" /><rect x="1186" y="2420" width="137" height="40" style="fill:green;stroke:black;stroke-width:1" /><text x="1196" y="2430" font-size="8" style="fill:white">6°52'26.86" N</text><rect x="1120" y="2470" width="200" height="40" style="fill:white;stroke:black;stroke-width:1" /><text x="1130" y="2480" font-size="10" style="fill:blue">altitud</text><path d="M1100 2390 C1120 2390 1100 2490 1120 2490" style="fill:transparent;stroke:black" /><rect x="1186" y="2470" width="137" height="40" style="fill:green;stroke:black;stroke-width:1" /><text x="1196" y="2480" font-size="8" style="fill:white">1013 m</text><rect x="900" y="2570" width="200" height="40" style="fill:white;stroke:black;stroke-width:1" /><text x="910" y="2580" font-size="10" style="fill:blue">distancia</text><path d="M880 2390 C900 2390 880 2590 900 2590" style="fill:transparent;stroke:black" /><text x="910" y="2590" font-size="8" style="fill:black">unidades: km</text><rect x="966" y="2570" width="137" height="40" style="fill:green;stroke:black;stroke-width:1" /><text x="976" y="2580" font-size="8" style="fill:white">0</text><rect x="900" y="2620" width="200" height="40" style="fill:white;stroke:black;stroke-width:1" /><text x="910" y="2630" font-size="10" style="fill:blue">galeria_fotos</text><path d="M880 2390 C900 2390 880 2640 900 2640" style="fill:transparent;stroke:black" /><rect x="1120" y="2620" width="200" height="40" style="fill:white;stroke:black;stroke-width:1" /><text x="1130" y="2630" font-size="10" style="fill:blue">fotografia</text><path d="M1100 2640 C1120 2640 1100 2640 1120 2640" style="fill:transparent;stroke:black" /><rect x="1186" y="2620" width="137" height="40" style="fill:green;stroke:black;stroke-width:1" /><text x="1196" y="2630" font-size="8" style="fill:white"> ella_main_street </text><rect x="680" y="2770" width="200" height="40" style="fill:white;stroke:black;stroke-width:1" /><text x="690" y="2780" font-size="10" style="fill:blue">hito</text><path d="M660 2390 C680 2390 660 2790 680 2790" style="fill:transparent;stroke:black" /><text x="690" y="2790" font-size="8" style="fill:black">nombre: Little Adam's Peak</text><text x="690" y="2800" font-size="8" style="fill:black">descripcion: Una modesta cumbre a 1146m que tiene unas vistas de escándalo hacia Ella y el entorno que nos rodea</text><rect x="900" y="2770" width="200" height="40" style="fill:white;stroke:black;stroke-width:1" /><text x="910" y="2780" font-size="10" style="fill:blue">coordenadas</text><path d="M880 2790 C900 2790 880 2790 900 2790" style="fill:transparent;stroke:black" /><rect x="1120" y="2770" width="200" height="40" style="fill:white;stroke:black;stroke-width:1" /><text x="1130" y="2780" font-size="10" style="fill:blue">longitud</text><path d="M1100 2790 C1120 2790 1100 2790 1120 2790" style="fill:transparent;stroke:black" /><rect x="1186" y="2770" width="137" height="40" style="fill:green;stroke:black;stroke-width:1" /><text x="1196" y="2780" font-size="8" style="fill:white">81°03'47.09" E</text><rect x="1120" y="2820" width="200" height="40" style="fill:white;stroke:black;stroke-width:1" /><text x="1130" y="2830" font-size="10" style="fill:blue">latitud</text><path d="M1100 2790 C1120 2790 1100 2840 1120 2840" style="fill:transparent;stroke:black" /><rect x="1186" y="2820" width="137" height="40" style="fill:green;stroke:black;stroke-width:1" /><text x="1196" y="2830" font-size="8" style="fill:white">6°51'54.45" N</text><rect x="1120" y="2870" width="200" height="40" style="fill:white;stroke:black;stroke-width:1" /><text x="1130" y="2880" font-size="10" style="fill:blue">altitud</text><path d="M1100 2790 C1120 2790 1100 2890 1120 2890" style="fill:transparent;stroke:black" /><rect x="1186" y="2870" width="137" height="40" style="fill:green;stroke:black;stroke-width:1" /><text x="1196" y="2880" font-size="8" style="fill:white">1146 m</text><rect x="900" y="2970" width="200" height="40" style="fill:white;stroke:black;stroke-width:1" /><text x="910" y="2980" font-size="10" style="fill:blue">distancia</text><path d="M880 2790 C900 2790 880 2990 900 2990" style="fill:transparent;stroke:black" /><text x="910" y="2990" font-size="8" style="fill:black">unidades: km</text><rect x="966" y="2970" width="137" height="40" style="fill:green;stroke:black;stroke-width:1" /><text x="976" y="2980" font-size="8" style="fill:white">2.7</text><rect x="900" y="3020" width="200" height="40" style="fill:white;stroke:black;stroke-width:1" /><text x="910" y="3030" font-size="10" style="fill:blue">galeria_fotos</text><path d="M880 2790 C900 2790 880 3040 900 3040" style="fill:transparent;stroke:black" /><rect x="1120" y="3020" width="200" height="40" style="fill:white;stroke:black;stroke-width:1" /><text x="1130" y="3030" font-size="10" style="fill:blue">fotografia</text><path d="M1100 3040 C1120 3040 1100 3040 1120 3040" style="fill:transparent;stroke:black" /><rect x="1186" y="3020" width="137" height="40" style="fill:green;stroke:black;stroke-width:1" /><text x="1196" y="3030" font-size="8" style="fill:white"> little_adams_peak </text><rect x="680" y="3170" width="200" height="40" style="fill:white;stroke:black;stroke-width:1" /><text x="690" y="3180" font-size="10" style="fill:blue">hito</text><path d="M660 2390 C680 2390 660 3190 680 3190" style="fill:transparent;stroke:black" /><text x="690" y="3190" font-size="8" style="fill:black">nombre: Nine Arches Bridge</text><text x="690" y="3200" font-size="8" style="fill:black">descripcion: Famoso puente reconocible por sus nueve arcos. Es uno de los mejores ejemplos de contrucción ferroviaria de la época colonial del país</text><rect x="900" y="3170" width="200" height="40" style="fill:white;stroke:black;stroke-width:1" /><text x="910" y="3180" font-size="10" style="fill:blue">coordenadas</text><path d="M880 3190 C900 3190 880 3190 900 3190" style="fill:transparent;stroke:black" /><rect x="1120" y="3170" width="200" height="40" style="fill:white;stroke:black;stroke-width:1" /><text x="1130" y="3180" font-size="10" style="fill:blue">longitud</text><path d="M1100 3190 C1120 3190 1100 3190 1120 3190" style="fill:transparent;stroke:black" /><rect x="1186" y="3170" width="137" height="40" style="fill:green;stroke:black;stroke-width:1" /><text x="1196" y="3180" font-size="8" style="fill:white">81°03'39.19" E</text><rect x="1120" y="3220" width="200" height="40" style="fill:white;stroke:black;stroke-width:1" /><text x="1130" y="3230" font-size="10" style="fill:blue">latitud</text><path d="M1100 3190 C1120 3190 1100 3240 1120 3240" style="fill:transparent;stroke:black" /><rect x="1186" y="3220" width="137" height="40" style="fill:green;stroke:black;stroke-width:1" /><text x="1196" y="3230" font-size="8" style="fill:white">6°52'36.35" N</text><rect x="1120" y="3270" width="200" height="40" style="fill:white;stroke:black;stroke-width:1" /><text x="1130" y="3280" font-size="10" style="fill:blue">altitud</text><path d="M1100 3190 C1120 3190 1100 3290 1120 3290" style="fill:transparent;stroke:black" /><rect x="1186" y="3270" width="137" height="40" style="fill:green;stroke:black;stroke-width:1" /><text x="1196" y="3280" font-size="8" style="fill:white">1146 m</text><rect x="900" y="3370" width="200" height="40" style="fill:white;stroke:black;stroke-width:1" /><text x="910" y="3380" font-size="10" style="fill:blue">distancia</text><path d="M880 3190 C900 3190 880 3390 900 3390" style="fill:transparent;stroke:black" /><text x="910" y="3390" font-size="8" style="fill:black">unidades: km</text><rect x="966" y="3370" width="137" height="40" style="fill:green;stroke:black;stroke-width:1" /><text x="976" y="3380" font-size="8" style="fill:white">3.1</text><rect x="900" y="3420" width="200" height="40" style="fill:white;stroke:black;stroke-width:1" /><text x="910" y="3430" font-size="10" style="fill:blue">galeria_fotos</text><path d="M880 3190 C900 3190 880 3440 900 3440" style="fill:transparent;stroke:black" /><rect x="1120" y="3420" width="200" height="40" style="fill:white;stroke:black;stroke-width:1" /><text x="1130" y="3430" font-size="10" style="fill:blue">fotografia</text><path d="M1100 3440 C1120 3440 1100 3440 1120 3440" style="fill:transparent;stroke:black" /><rect x="1186" y="3420" width="137" height="40" style="fill:green;stroke:black;stroke-width:1" /><text x="1196" y="3430" font-size="8" style="fill:white"> nine_arches_bridge </text><rect x="240" y="3670" width="200" height="40" style="fill:white;stroke:black;stroke-width:1" /><text x="250" y="3680" font-size="10" style="fill:blue">ruta</text><path d="M220 40 C240 40 220 3690 240 3690" style="fill:transparent;stroke:black" /><text x="250" y="3690" font-size="8" style="fill:black">nombre: Sigiriya</text><text x="250" y="3700" font-size="8" style="fill:black">tipo: Mountain Bike</text><text x="250" y="3710" font-size="8" style="fill:black">medio_transporte: Bicicleta de Montaña</text><text x="250" y="3720" font-size="8" style="fill:black">duracion: 6 horas</text><text x="250" y="3730" font-size="8" style="fill:black">agencia: Sin agencia</text><text x="250" y="3740" font-size="8" style="fill:black">personas_adecuadas: Personas en buena forma física</text><text x="250" y="3750" font-size="8" style="fill:black">lugar_inicio: Sigiriya</text><text x="250" y="3760" font-size="8" style="fill:black">direccion: Inamaluwa</text><text x="250" y="3770" font-size="8" style="fill:black">recomendacion: 9</text><rect x="460" y="3670" width="200" height="40" style="fill:white;stroke:black;stroke-width:1" /><text x="470" y="3680" font-size="10" style="fill:blue">descripcion</text><path d="M440 3690 C460 3690 440 3690 460 3690" style="fill:transparent;stroke:black" /><rect x="526" y="3670" width="137" height="40" style="fill:green;stroke:black;stroke-width:1" /><text x="536" y="3680" font-size="8" style="fill:white">Ruta en bicicleta que va a Pirudangala Rock, un lugar con vistas fantásticas a Sigiriya Rock. Posteriormente visitamos el Museo de Sigiriya. Después iremos hasta Sigiriya Rock donde encontraremos los restos de un antiguo palacio, para finalmente volver al punto de partida</text><rect x="460" y="3720" width="200" height="40" style="fill:white;stroke:black;stroke-width:1" /><text x="470" y="3730" font-size="10" style="fill:blue">coordenadas</text><path d="M440 3690 C460 3690 440 3740 460 3740" style="fill:transparent;stroke:black" /><rect x="680" y="3720" width="200" height="40" style="fill:white;stroke:black;stroke-width:1" /><text x="690" y="3730" font-size="10" style="fill:blue">longitud</text><path d="M660 3740 C680 3740 660 3740 680 3740" style="fill:transparent;stroke:black" /><rect x="746" y="3720" width="137" height="40" style="fill:green;stroke:black;stroke-width:1" /><text x="756" y="3730" font-size="8" style="fill:white">80°45'07.94" E</text><rect x="680" y="3770" width="200" height="40" style="fill:white;stroke:black;stroke-width:1" /><text x="690" y="3780" font-size="10" style="fill:blue">latitud</text><path d="M660 3740 C680 3740 660 3790 680 3790" style="fill:transparent;stroke:black" /><rect x="746" y="3770" width="137" height="40" style="fill:green;stroke:black;stroke-width:1" /><text x="756" y="3780" font-size="8" style="fill:white">7°56'51.46" N</text><rect x="680" y="3820" width="200" height="40" style="fill:white;stroke:black;stroke-width:1" /><text x="690" y="3830" font-size="10" style="fill:blue">altitud</text><path d="M660 3740 C680 3740 660 3840 680 3840" style="fill:transparent;stroke:black" /><rect x="746" y="3820" width="137" height="40" style="fill:green;stroke:black;stroke-width:1" /><text x="756" y="3830" font-size="8" style="fill:white">201 m</text><rect x="460" y="3920" width="200" height="40" style="fill:white;stroke:black;stroke-width:1" /><text x="470" y="3930" font-size="10" style="fill:blue">referencias</text><path d="M440 3690 C460 3690 440 3940 460 3940" style="fill:transparent;stroke:black" /><rect x="680" y="3920" width="200" height="40" style="fill:white;stroke:black;stroke-width:1" /><text x="690" y="3930" font-size="10" style="fill:blue">referencia</text><path d="M660 3940 C680 3940 660 3940 680 3940" style="fill:transparent;stroke:black" /><rect x="746" y="3920" width="137" height="40" style="fill:green;stroke:black;stroke-width:1" /><text x="756" y="3930" font-size="8" style="fill:white">
                https://es.wikiloc.com/rutas-mountain-bike/sigiriya-pidurangala-rock-lion-rock-sigiriya-22300983
                </text><rect x="680" y="3970" width="200" height="40" style="fill:white;stroke:black;stroke-width:1" /><text x="690" y="3980" font-size="10" style="fill:blue">referencia</text><path d="M660 3940 C680 3940 660 3990 680 3990" style="fill:transparent;stroke:black" /><rect x="746" y="3970" width="137" height="40" style="fill:green;stroke:black;stroke-width:1" /><text x="756" y="3980" font-size="8" style="fill:white">https://es.wikipedia.org/wiki/Sigiriya</text><rect x="680" y="4020" width="200" height="40" style="fill:white;stroke:black;stroke-width:1" /><text x="690" y="4030" font-size="10" style="fill:blue">referencia</text><path d="M660 3940 C680 3940 660 4040 680 4040" style="fill:transparent;stroke:black" /><rect x="746" y="4020" width="137" height="40" style="fill:green;stroke:black;stroke-width:1" /><text x="756" y="4030" font-size="8" style="fill:white">https://www.lovesrilanka.org/sigiriya-museum/</text><rect x="460" y="4120" width="200" height="40" style="fill:white;stroke:black;stroke-width:1" /><text x="470" y="4130" font-size="10" style="fill:blue">hitos</text><path d="M440 3690 C460 3690 440 4140 460 4140" style="fill:transparent;stroke:black" /><rect x="680" y="4120" width="200" height="40" style="fill:white;stroke:black;stroke-width:1" /><text x="690" y="4130" font-size="10" style="fill:blue">hito</text><path d="M660 4140 C680 4140 660 4140 680 4140" style="fill:transparent;stroke:black" /><text x="690" y="4140" font-size="8" style="fill:black">nombre: Pirudangala Rock</text><text x="690" y="4150" font-size="8" style="fill:black">descripcion: Zona de senderismo y escalada moderados hasta la cima de una roca, popular por sus vistas panorámicas.</text><rect x="900" y="4120" width="200" height="40" style="fill:white;stroke:black;stroke-width:1" /><text x="910" y="4130" font-size="10" style="fill:blue">coordenadas</text><path d="M880 4140 C900 4140 880 4140 900 4140" style="fill:transparent;stroke:black" /><rect x="1120" y="4120" width="200" height="40" style="fill:white;stroke:black;stroke-width:1" /><text x="1130" y="4130" font-size="10" style="fill:blue">longitud</text><path d="M1100 4140 C1120 4140 1100 4140 1120 4140" style="fill:transparent;stroke:black" /><rect x="1186" y="4120" width="137" height="40" style="fill:green;stroke:black;stroke-width:1" /><text x="1196" y="4130" font-size="8" style="fill:white">80°45'42.63" E</text><rect x="1120" y="4170" width="200" height="40" style="fill:white;stroke:black;stroke-width:1" /><text x="1130" y="4180" font-size="10" style="fill:blue">latitud</text><path d="M1100 4140 C1120 4140 1100 4190 1120 4190" style="fill:transparent;stroke:black" /><rect x="1186" y="4170" width="137" height="40" style="fill:green;stroke:black;stroke-width:1" /><text x="1196" y="4180" font-size="8" style="fill:white">7°57'58.80" N</text><rect x="1120" y="4220" width="200" height="40" style="fill:white;stroke:black;stroke-width:1" /><text x="1130" y="4230" font-size="10" style="fill:blue">altitud</text><path d="M1100 4140 C1120 4140 1100 4240 1120 4240" style="fill:transparent;stroke:black" /><rect x="1186" y="4220" width="137" height="40" style="fill:green;stroke:black;stroke-width:1" /><text x="1196" y="4230" font-size="8" style="fill:white">320 m</text><rect x="900" y="4320" width="200" height="40" style="fill:white;stroke:black;stroke-width:1" /><text x="910" y="4330" font-size="10" style="fill:blue">distancia</text><path d="M880 4140 C900 4140 880 4340 900 4340" style="fill:transparent;stroke:black" /><text x="910" y="4340" font-size="8" style="fill:black">unidades: km</text><rect x="966" y="4320" width="137" height="40" style="fill:green;stroke:black;stroke-width:1" /><text x="976" y="4330" font-size="8" style="fill:white">0</text><rect x="900" y="4370" width="200" height="40" style="fill:white;stroke:black;stroke-width:1" /><text x="910" y="4380" font-size="10" style="fill:blue">galeria_fotos</text><path d="M880 4140 C900 4140 880 4390 900 4390" style="fill:transparent;stroke:black" /><rect x="1120" y="4370" width="200" height="40" style="fill:white;stroke:black;stroke-width:1" /><text x="1130" y="4380" font-size="10" style="fill:blue">fotografia</text><path d="M1100 4390 C1120 4390 1100 4390 1120 4390" style="fill:transparent;stroke:black" /><rect x="1186" y="4370" width="137" height="40" style="fill:green;stroke:black;stroke-width:1" /><text x="1196" y="4380" font-size="8" style="fill:white"> pirudangala_rock </text><rect x="680" y="4520" width="200" height="40" style="fill:white;stroke:black;stroke-width:1" /><text x="690" y="4530" font-size="10" style="fill:blue">hito</text><path d="M660 4140 C680 4140 660 4540 680 4540" style="fill:transparent;stroke:black" /><text x="690" y="4540" font-size="8" style="fill:black">nombre: Museo de Sigiriya</text><text x="690" y="4550" font-size="8" style="fill:black">descripcion: Establecido en 2009, el museo contiene galerías que muestran los esfuerzos de excavación llevados a cabo en Sigiriya.</text><rect x="900" y="4520" width="200" height="40" style="fill:white;stroke:black;stroke-width:1" /><text x="910" y="4530" font-size="10" style="fill:blue">coordenadas</text><path d="M880 4540 C900 4540 880 4540 900 4540" style="fill:transparent;stroke:black" /><rect x="1120" y="4520" width="200" height="40" style="fill:white;stroke:black;stroke-width:1" /><text x="1130" y="4530" font-size="10" style="fill:blue">longitud</text><path d="M1100 4540 C1120 4540 1100 4540 1120 4540" style="fill:transparent;stroke:black" /><rect x="1186" y="4520" width="137" height="40" style="fill:green;stroke:black;stroke-width:1" /><text x="1196" y="4530" font-size="8" style="fill:white">80°45'07.02" E</text><rect x="1120" y="4570" width="200" height="40" style="fill:white;stroke:black;stroke-width:1" /><text x="1130" y="4580" font-size="10" style="fill:blue">latitud</text><path d="M1100 4540 C1120 4540 1100 4590 1120 4590" style="fill:transparent;stroke:black" /><rect x="1186" y="4570" width="137" height="40" style="fill:green;stroke:black;stroke-width:1" /><text x="1196" y="4580" font-size="8" style="fill:white">7°57'25.41" N</text><rect x="1120" y="4620" width="200" height="40" style="fill:white;stroke:black;stroke-width:1" /><text x="1130" y="4630" font-size="10" style="fill:blue">altitud</text><path d="M1100 4540 C1120 4540 1100 4640 1120 4640" style="fill:transparent;stroke:black" /><rect x="1186" y="4620" width="137" height="40" style="fill:green;stroke:black;stroke-width:1" /><text x="1196" y="4630" font-size="8" style="fill:white">199 m</text><rect x="900" y="4720" width="200" height="40" style="fill:white;stroke:black;stroke-width:1" /><text x="910" y="4730" font-size="10" style="fill:blue">distancia</text><path d="M880 4540 C900 4540 880 4740 900 4740" style="fill:transparent;stroke:black" /><text x="910" y="4740" font-size="8" style="fill:black">unidades: km</text><rect x="966" y="4720" width="137" height="40" style="fill:green;stroke:black;stroke-width:1" /><text x="976" y="4730" font-size="8" style="fill:white">4.3</text><rect x="900" y="4770" width="200" height="40" style="fill:white;stroke:black;stroke-width:1" /><text x="910" y="4780" font-size="10" style="fill:blue">galeria_fotos</text><path d="M880 4540 C900 4540 880 4790 900 4790" style="fill:transparent;stroke:black" /><rect x="1120" y="4770" width="200" height="40" style="fill:white;stroke:black;stroke-width:1" /><text x="1130" y="4780" font-size="10" style="fill:blue">fotografia</text><path d="M1100 4790 C1120 4790 1100 4790 1120 4790" style="fill:transparent;stroke:black" /><rect x="1186" y="4770" width="137" height="40" style="fill:green;stroke:black;stroke-width:1" /><text x="1196" y="4780" font-size="8" style="fill:white"> sigiriya_museum </text><rect x="680" y="4920" width="200" height="40" style="fill:white;stroke:black;stroke-width:1" /><text x="690" y="4930" font-size="10" style="fill:blue">hito</text><path d="M660 4140 C680 4140 660 4940 680 4940" style="fill:transparent;stroke:black" /><text x="690" y="4940" font-size="8" style="fill:black">nombre: Sigiriya Rock</text><text x="690" y="4950" font-size="8" style="fill:black">descripcion: En la cima de la roca hay un palacio, además de la Puerta del León y el muro de los espejos.</text><rect x="900" y="4920" width="200" height="40" style="fill:white;stroke:black;stroke-width:1" /><text x="910" y="4930" font-size="10" style="fill:blue">coordenadas</text><path d="M880 4940 C900 4940 880 4940 900 4940" style="fill:transparent;stroke:black" /><rect x="1120" y="4920" width="200" height="40" style="fill:white;stroke:black;stroke-width:1" /><text x="1130" y="4930" font-size="10" style="fill:blue">longitud</text><path d="M1100 4940 C1120 4940 1100 4940 1120 4940" style="fill:transparent;stroke:black" /><rect x="1186" y="4920" width="137" height="40" style="fill:green;stroke:black;stroke-width:1" /><text x="1196" y="4930" font-size="8" style="fill:white">80°45'35.81" E</text><rect x="1120" y="4970" width="200" height="40" style="fill:white;stroke:black;stroke-width:1" /><text x="1130" y="4980" font-size="10" style="fill:blue">latitud</text><path d="M1100 4940 C1120 4940 1100 4990 1120 4990" style="fill:transparent;stroke:black" /><rect x="1186" y="4970" width="137" height="40" style="fill:green;stroke:black;stroke-width:1" /><text x="1196" y="4980" font-size="8" style="fill:white">7°57'24.96" N</text><rect x="1120" y="5020" width="200" height="40" style="fill:white;stroke:black;stroke-width:1" /><text x="1130" y="5030" font-size="10" style="fill:blue">altitud</text><path d="M1100 4940 C1120 4940 1100 5040 1120 5040" style="fill:transparent;stroke:black" /><rect x="1186" y="5020" width="137" height="40" style="fill:green;stroke:black;stroke-width:1" /><text x="1196" y="5030" font-size="8" style="fill:white">199 m</text><rect x="900" y="5120" width="200" height="40" style="fill:white;stroke:black;stroke-width:1" /><text x="910" y="5130" font-size="10" style="fill:blue">distancia</text><path d="M880 4940 C900 4940 880 5140 900 5140" style="fill:transparent;stroke:black" /><text x="910" y="5140" font-size="8" style="fill:black">unidades: km</text><rect x="966" y="5120" width="137" height="40" style="fill:green;stroke:black;stroke-width:1" /><text x="976" y="5130" font-size="8" style="fill:white">2</text><rect x="900" y="5170" width="200" height="40" style="fill:white;stroke:black;stroke-width:1" /><text x="910" y="5180" font-size="10" style="fill:blue">galeria_fotos</text><path d="M880 4940 C900 4940 880 5190 900 5190" style="fill:transparent;stroke:black" /><rect x="1120" y="5170" width="200" height="40" style="fill:white;stroke:black;stroke-width:1" /><text x="1130" y="5180" font-size="10" style="fill:blue">fotografia</text><path d="M1100 5190 C1120 5190 1100 5190 1120 5190" style="fill:transparent;stroke:black" /><rect x="1186" y="5170" width="137" height="40" style="fill:green;stroke:black;stroke-width:1" /><text x="1196" y="5180" font-size="8" style="fill:white"> sigiriya_rock </text></svg>